<?xml version="1.0" standalone="no"?>
<!DOCTYPE svg PUBLIC "-//W3C//DTD SVG 20010904//EN"
 "http://www.w3.org/TR/2001/REC-SVG-20010904/DTD/svg10.dtd">
<svg version="1.0" xmlns="http://www.w3.org/2000/svg"
 width="192.000000pt" height="192.000000pt" viewBox="0 0 192.000000 192.000000"
 preserveAspectRatio="xMidYMid meet">
<metadata>
Created by potrace 1.11, written by Peter Selinger 2001-2013
</metadata>
<g transform="translate(0.000000,192.000000) scale(0.100000,-0.100000)"
fill="#000000" stroke="none">
<path d="M172 1548 c-7 -7 -12 -40 -12 -80 l0 -68 -80 0 -80 0 0 -440 0 -440
80 0 80 0 0 -70 c0 -58 3 -71 19 -80 29 -15 354 -13 369 2 8 8 12 45 12 100
l0 88 181 0 c228 0 246 8 264 120 13 76 22 83 115 97 47 7 108 15 135 18 28 3
57 8 65 10 8 2 39 7 68 10 l52 6 0 -70 0 -71 -68 0 c-40 0 -73 -5 -80 -12 -15
-15 -16 -221 -2 -249 10 -18 23 -19 188 -19 125 0 182 4 190 12 8 8 12 51 12
130 0 137 -1 138 -100 138 l-61 0 3 77 3 78 80 12 c44 6 88 12 98 12 16 1 17
-13 17 -169 l0 -170 80 0 80 0 0 181 c0 168 2 183 21 210 16 23 20 38 14 65
-3 19 -13 38 -21 41 -11 4 -14 39 -14 194 l0 189 -80 0 -80 0 0 -171 0 -171
-43 6 c-62 10 -130 18 -144 19 -9 0 -13 23 -13 79 l0 78 68 0 c40 0 73 5 80
12 17 17 17 239 0 256 -8 8 -64 12 -188 12 -124 0 -180 -4 -188 -12 -17 -17
-17 -239 0 -256 7 -7 40 -12 80 -12 l68 0 0 -70 c0 -49 -4 -70 -12 -70 -7 0
-44 5 -83 11 -38 5 -85 12 -104 15 -19 2 -46 6 -60 8 -14 3 -52 8 -83 11 -32
4 -62 13 -67 19 -6 7 -17 39 -24 72 -17 71 -33 99 -64 113 -14 7 -97 11 -203
11 l-180 0 0 88 c0 55 -4 92 -12 100 -17 17 -359 17 -376 0z"/>
</g>
</svg>
